<?xml version="1.0" encoding="utf-8"?>
<!-- Generator: Adobe Illustrator 17.1.0, SVG Export Plug-In . SVG Version: 6.00 Build 0)  -->
<!DOCTYPE svg PUBLIC "-//W3C//DTD SVG 1.1//EN" "http://www.w3.org/Graphics/SVG/1.1/DTD/svg11.dtd">
<svg version="1.1" id="Layer_1" xmlns="http://www.w3.org/2000/svg" xmlns:xlink="http://www.w3.org/1999/xlink" x="0px" y="0px"
	 viewBox="0 0 32 32" enable-background="new 0 0 32 32" xml:space="preserve">
<g>
	<path d="M32,16c0,8.8-7.2,16-16,16C7.2,32,0,24.8,0,16C0,7.2,7.2,0,16,0C24.8,0,32,7.2,32,16z M20,29c5.5-1.8,9.5-6.9,9.5-13
		c0-7.5-6-13.5-13.5-13.5C8.5,2.5,2.5,8.5,2.5,16c0,6.1,4,11.2,9.5,13v-2.5c-3.9,0.9-4.8-1.8-4.8-1.8c-0.6-1.6-1.5-2-1.5-2
		c-1.3-0.9,0.1-0.8,0.1-0.8c1.4,0.1,2.1,1.4,2.1,1.4c1.3,2.2,3.5,1.4,4.2,1.1c0.2-1,1-1.2,1.2-1.3C9.8,22.6,6,21.3,6,15.2
		c0-1.7,0.6-3.1,1.6-4.2c-0.2-0.4-0.7-2,0.2-4.2c0,0,1.3-0.4,4.3,1.6c1.2-0.3,2.6-0.5,3.9-0.5c1.3,0,2.7,0.2,3.9,0.5
		c3-2,4.3-1.6,4.3-1.6c0.9,2.2,0.3,3.8,0.2,4.2c1,1.1,1.6,2.5,1.6,4.2c0,6.1-3.8,7.4-7.3,7.8c0.6,0.4,1.3,1.3,1.3,2.8V29z"/>
</g>
</svg>
