<?xml version="1.0" encoding="utf-8"?>
<!-- Generator: Adobe Illustrator 17.1.0, SVG Export Plug-In . SVG Version: 6.00 Build 0)  -->
<!DOCTYPE svg PUBLIC "-//W3C//DTD SVG 1.1//EN" "http://www.w3.org/Graphics/SVG/1.1/DTD/svg11.dtd">
<svg version="1.1" id="Layer_1" xmlns="http://www.w3.org/2000/svg" xmlns:xlink="http://www.w3.org/1999/xlink" x="0px" y="0px"
	 viewBox="0 -65 416 416" enable-background="new 0 -65 416 416" xml:space="preserve">
<g>
	<g>
		<g enable-background="new    ">
			<g>
				<polygon fill="#4459D1" points="217.5,47.8 217,80.7 159.8,87.8 157.6,54.4 				"/>
			</g>
			<g>
				<polygon fill="#475DD8" points="94,61.3 217.5,47.8 157.6,54.4 				"/>
			</g>
			<g>
				<polygon fill="#4459D1" points="157.6,54.4 159.8,87.8 99.3,95.4 94,61.3 				"/>
			</g>
			<g>
				<polygon fill="#5569D7" points="217.5,47.8 217,80.7 201.6,109.7 201.3,74.5 				"/>
			</g>
			<g>
				<polygon fill="#6071D0" points="264.9,66.8 262.1,101.3 201.6,109.7 201.3,74.5 				"/>
			</g>
			<g>
				<polygon fill="#5366D0" points="201.3,74.5 201.6,109.7 159.8,87.8 157.6,54.4 				"/>
			</g>
			<g>
				<polygon fill="#5669D8" points="217.5,47.8 201.3,74.5 157.6,54.4 				"/>
			</g>
			<g>
				<polygon fill="#6375D8" points="264.9,66.8 201.3,74.5 217.5,47.8 				"/>
			</g>
			<g>
				<polygon fill="#4053C2" points="157.6,54.4 133.6,82.7 94,61.3 				"/>
			</g>
			<g>
				<polygon fill="#4053C1" points="157.6,54.4 159.8,87.8 137.3,118.6 133.6,82.7 				"/>
			</g>
			<g>
				<polygon fill="#4459D0" points="201.3,74.5 201.6,109.7 137.3,118.6 133.6,82.7 				"/>
			</g>
			<g>
				<polygon fill="#3E50BB" points="133.6,82.7 137.3,118.6 99.3,95.4 94,61.3 				"/>
			</g>
			<g>
				<polygon fill="#475DD8" points="201.3,74.5 133.6,82.7 157.6,54.4 				"/>
			</g>
			<g>
				<polygon fill="#4459D0" points="264.9,66.8 262.1,101.3 137.3,118.6 133.6,82.7 				"/>
			</g>
			<g>
				<polygon fill="#475DD8" points="201.3,74.5 264.9,66.8 133.6,82.7 				"/>
			</g>
			<g>
				<polygon fill="#3647A7" points="133.6,82.7 137.3,118.6 68.9,128.1 61.2,91.5 				"/>
			</g>
			<g>
				<polygon fill="#4459D0" points="133.6,82.7 137.3,118.6 68.9,128.1 61.2,91.5 				"/>
			</g>
			<g>
				<polygon fill="#384AAC" points="133.6,82.7 61.2,91.5 94,61.3 				"/>
			</g>
			<g>
				<polygon opacity="0.102" fill="#D1D1D1" points="320.8,89.2 314.8,125.5 250.7,135.4 253.3,98.4 				"/>
			</g>
			<g>
				<polygon opacity="0.102" points="253.3,98.4 250.7,135.4 215.8,140.9 216.3,103.5 				"/>
			</g>
			<g>
				<polygon fill="#D1346A" points="216.3,103.5 215.8,140.9 182.2,146.1 180.8,108.3 				"/>
			</g>
			<g>
				<polygon fill="#293587" points="133.6,82.7 137.3,118.6 108.9,157.4 102.9,119 				"/>
			</g>
			<g>
				<polygon fill="#D9366E" points="216.3,103.5 180.8,108.3 108.7,118.2 				"/>
			</g>
			<g>
				<polygon fill="#D1346A" points="180.8,108.3 182.2,146.1 114.3,156.6 108.7,118.2 				"/>
			</g>
			<g>
				<polygon fill="#293687" points="133.6,82.7 102.9,119 61.2,91.5 				"/>
			</g>
			<g>
				<polygon fill="#273482" points="102.9,119 108.9,157.4 68.9,128.1 61.2,91.5 				"/>
			</g>
			<g>
				<polygon fill="#D1547E" points="315.9,127.3 309.4,166.2 314.8,125.5 320.8,89.2 				"/>
			</g>
			<g>
				<polygon fill="#D14474" points="315.9,127.3 309.4,166.2 250.7,135.4 253.3,98.4 				"/>
			</g>
			<g>
				<polygon fill="#D95783" points="387.9,116.1 315.9,127.3 320.8,89.2 				"/>
			</g>
			<g>
				<polygon fill="#D1547E" points="387.9,116.1 377.4,154.3 309.4,166.2 315.9,127.3 				"/>
			</g>
			<g>
				<polygon fill="#D94779" points="320.8,89.2 315.9,127.3 253.3,98.4 				"/>
			</g>
			<g>
				<polygon fill="#A72A54" points="387.9,116.1 377.4,154.3 309.4,166.2 315.9,127.3 				"/>
			</g>
			<g>
				<polygon fill="#D1346A" points="315.9,127.3 315.9,127.3 315.9,127.3 				"/>
			</g>
			<g>
				<polygon fill="#D1346A" points="315.9,127.3 309.4,166.2 309.4,166.2 315.9,127.3 				"/>
			</g>
			<g>
				
					<rect x="293" y="146.8" transform="matrix(0.1654 -0.9862 0.9862 0.1654 116.2149 430.8421)" fill="#D1346A" width="39.4" height="0"/>
			</g>
			<g>
				<polygon opacity="0.502" points="102.9,119 108.9,157.4 30.2,169.6 18.9,130.4 				"/>
			</g>
			<g>
				<polygon fill="#1F2968" points="102.9,119 108.9,157.4 30.2,169.6 18.9,130.4 				"/>
			</g>
			<g>
				<polygon fill="#202A6C" points="102.9,119 18.9,130.4 61.2,91.5 				"/>
			</g>
			<g>
				<polygon fill="#C13062" points="253.3,98.4 250.7,135.4 236.2,179 238.2,139.4 				"/>
			</g>
			<g>
				<polygon fill="#D1346A" points="315.9,127.3 309.4,166.2 236.2,179 238.2,139.4 				"/>
			</g>
			<g>
				<polygon fill="#C33063" points="253.3,98.4 238.2,139.4 180.8,108.3 216.3,103.5 				"/>
			</g>
			<g>
				<polygon fill="#BC2F5F" points="238.2,139.4 236.2,179 182.2,146.1 180.8,108.3 				"/>
			</g>
			<g>
				<polygon fill="#D9366E" points="315.9,127.3 238.2,139.4 253.3,98.4 				"/>
			</g>
			<g>
				<polygon fill="#97264C" points="180.8,108.3 154,152.6 102.9,119 108.7,118.2 				"/>
			</g>
			<g>
				<polygon fill="#96264C" points="180.8,108.3 182.2,146.1 157.3,192.9 154,152.6 				"/>
			</g>
			<g>
				<polygon fill="#AD2B58" points="238.2,139.4 154,152.6 180.8,108.3 				"/>
			</g>
			<g>
				<polygon fill="#A72A54" points="238.2,139.4 236.2,179 157.3,192.9 154,152.6 				"/>
			</g>
			<g>
				<polygon fill="#92254A" points="154,152.6 157.3,192.9 108.9,157.4 102.9,119 				"/>
			</g>
			<g>
				<polygon fill="#58162C" points="154,152.6 157.3,192.9 108.9,157.4 102.9,119 				"/>
			</g>
			<g>
				<polygon fill="#293577" points="393,162.8 380.7,203.6 309.4,166.2 315.9,127.3 				"/>
			</g>
			<g>
				<polygon fill="#2A377B" points="387.9,116.1 393,162.8 315.9,127.3 				"/>
			</g>
			<g>
				<polygon fill="#401020" points="102.9,119 108.9,157.4 72,207.9 62.4,166.8 				"/>
			</g>
			<g>
				<polygon fill="#6C1B36" points="102.9,119 108.9,157.4 72,207.9 62.4,166.8 				"/>
			</g>
			<g>
				<polygon fill="#D9366E" points="315.9,127.3 62.4,166.8 154,152.6 238.2,139.4 				"/>
			</g>
			<g>
				<polygon fill="#7D1F3F" points="154,152.6 157.3,192.9 72,207.9 62.4,166.8 				"/>
			</g>
			<g>
				<polygon fill="#D1346A" points="315.9,127.3 309.4,166.2 72,207.9 62.4,166.8 				"/>
			</g>
			<g>
				<polygon fill="#822041" points="154,152.6 62.4,166.8 102.9,119 				"/>
			</g>
			<g>
				<polygon fill="#681A34" points="62.4,166.8 72,207.9 30.2,169.6 18.9,130.4 				"/>
			</g>
			<g>
				<polygon fill="#6C1B36" points="102.9,119 62.4,166.8 18.9,130.4 				"/>
			</g>
			<g>
				<polygon fill="#36459A" points="393,162.8 309.4,178 315.9,127.3 				"/>
			</g>
			<g>
				<polygon fill="#344294" points="309.4,178 302.4,219.4 309.4,166.2 315.9,127.3 				"/>
			</g>
			<g>
				<polygon fill="#344294" points="393,162.8 380.7,203.6 302.4,219.4 309.4,178 				"/>
			</g>
			<g>
				<polygon fill="#636EA6" points="393,162.8 380.7,203.6 302.4,219.4 309.4,178 				"/>
			</g>
			<g>
				<polygon fill="#636EA6" points="309.4,178 302.4,219.4 217.1,236.7 218,194.6 				"/>
			</g>
			<g>
				<polygon fill="#636EA6" points="218,194.6 217.1,236.7 124,255.5 117.4,212.9 				"/>
			</g>
			<g>
				<polygon fill="#6772AC" points="309.4,178 218,194.6 117.4,212.9 				"/>
			</g>
			<g>
				<polygon fill="#7E86B5" points="393,162.8 400.2,227.2 309.4,178 				"/>
			</g>
			<g>
				<polygon fill="#7982AF" points="400.2,227.2 385.2,270 302.4,219.4 309.4,178 				"/>
			</g>
			<g>
				<polygon fill="#6F78AB" points="400.2,227.2 385.2,270 292.7,292 300.4,248.8 				"/>
			</g>
			<g>
				<polygon fill="#737CB1" points="400.2,227.2 300.4,248.8 309.4,178 				"/>
			</g>
			<g>
				<polygon fill="#6F78AB" points="300.4,248.8 292.7,292 302.4,219.4 309.4,178 				"/>
			</g>
			<g>
				<polygon fill="#6772AC" points="309.4,178 300.4,248.8 218,194.6 				"/>
			</g>
			<g>
				<polygon fill="#636EA6" points="300.4,248.8 292.7,292 217.1,236.7 218,194.6 				"/>
			</g>
			<g>
				<polygon fill="#525A88" points="218,194.6 217.1,236.7 190.6,316.4 189.2,273 				"/>
			</g>
			<g>
				<polygon fill="#596295" points="300.4,248.8 292.7,292 190.6,316.4 189.2,273 				"/>
			</g>
			<g>
				<polygon fill="#636EA6" points="400.2,227.2 385.2,270 190.6,316.4 189.2,273 				"/>
			</g>
			<g>
				<polygon fill="#6772AC" points="300.4,248.8 400.2,227.2 189.2,273 				"/>
			</g>
			<g>
				<polygon fill="#5D669B" points="300.4,248.8 189.2,273 218,194.6 				"/>
			</g>
			<g>
				<polygon fill="#525B8A" points="218,194.6 189.2,273 117.4,212.9 				"/>
			</g>
			<g>
				<polygon fill="#505885" points="189.2,273 190.6,316.4 124,255.5 117.4,212.9 				"/>
			</g>
		</g>
	</g>
</g>
<g display="none">
	<g display="inline">
		<polygon fill="#303F9F" points="84.2,143 42.9,214.5 84.2,286 166.7,286 		"/>
		<polygon fill="#3F51B5" points="331.8,0 249.3,0 331.8,143 373.1,71.5 		"/>
		<polygon fill="#7986CB" points="373.1,71.5 249.3,286 331.8,286 414.4,143 		"/>
		<polygon fill="#536DFE" points="84.2,0 1.6,143 42.9,214.5 166.7,0 		"/>
		<polygon fill-opacity="0.5" points="249.3,0 290.6,71.5 331.8,0 		"/>
		<polygon fill-opacity="0.5" points="84.2,286 125.4,214.5 166.7,286 		"/>
		<polygon fill="#FFFFFF" fill-opacity="0.2" points="84.2,0 125.4,71.5 166.7,0 		"/>
		<polygon fill="#FFFFFF" fill-opacity="0.1" points="42.9,71.5 84.2,0 125.4,71.5 		"/>
		<polygon fill="#FFFFFF" fill-opacity="0" points="42.9,71.5 84.2,143 125.4,71.5 		"/>
		<polygon fill-opacity="0.1" points="1.6,143 42.9,71.5 84.2,143 		"/>
		<polygon fill-opacity="0.2" points="1.6,143 42.9,214.5 84.2,143 		"/>
		<polygon fill="#FFFFFF" fill-opacity="0" points="125.4,214.5 84.2,143 42.9,214.5 		"/>
		<polygon fill="#FFFFFF" fill-opacity="0" points="373.1,71.5 331.8,143 290.6,71.5 		"/>
		<g>
			<polygon fill="#FFFFFF" fill-opacity="0.2" points="331.8,143 373.1,71.5 414.4,143 			"/>
			<polygon fill="#FFFFFF" fill-opacity="0.1" points="331.8,143 373.1,214.5 414.4,143 			"/>
			<polygon fill="#FFFFFF" fill-opacity="0" points="290.6,214.5 331.8,143 373.1,214.5 			"/>
			<polygon fill-opacity="0.1" points="290.6,214.5 331.8,286 373.1,214.5 			"/>
			<polygon fill-opacity="0.2" points="249.3,286 290.6,214.5 331.8,286 			"/>
		</g>
		<polygon fill-opacity="0.2" points="125.4,214.5 84.2,286 42.9,214.5 		"/>
		<polygon fill-opacity="0.2" points="373.1,71.5 331.8,0 290.6,71.5 		"/>
	</g>
	<rect y="-65" display="inline" fill="none" width="416" height="416"/>
</g>
<g display="none">
	<g display="inline">
		<polygon fill="#FF4081" points="249.3,0 84.2,286 166.7,286 331.8,0 		"/>
		<polygon fill="#FFFFFF" fill-opacity="0.2" points="249.3,0 290.6,71.5 331.8,0 		"/>
		<polygon fill="#FFFFFF" fill-opacity="0.1" points="208,71.5 249.3,0 290.6,71.5 		"/>
		<polygon fill="#FFFFFF" fill-opacity="0" points="208,71.5 249.3,143 290.6,71.5 		"/>
		<polygon fill-opacity="0.2" points="166.7,143 208,214.5 249.3,143 		"/>
		<polygon fill-opacity="0.3" points="125.4,214.5 166.7,143 208,214.5 		"/>
		<polygon fill-opacity="0.4" points="125.4,214.5 166.7,286 208,214.5 		"/>
		<polygon fill-opacity="0.5" points="84.2,286 125.4,214.5 166.7,286 		"/>
		<polygon fill-opacity="0.1" points="166.7,143 208,71.5 249.3,143 		"/>
	</g>
	<g display="inline">
		<polygon fill="#FF4081" points="331.8,0 166.7,286 249.3,286 373.1,71.5 		"/>
		<polygon fill="#FFFFFF" fill-opacity="0.1" points="290.6,71.5 331.8,0 373.1,71.5 		"/>
		<polygon fill="#FFFFFF" fill-opacity="0" points="290.6,71.5 331.8,143 373.1,71.5 		"/>
		<polygon fill-opacity="0.2" points="249.3,143 290.6,214.5 331.8,143 		"/>
		<polygon fill-opacity="0.3" points="208,214.5 249.3,143 290.6,214.5 		"/>
		<polygon fill-opacity="0.4" points="208,214.5 249.3,286 290.6,214.5 		"/>
		<polygon fill-opacity="0.5" points="166.7,286 208,214.5 249.3,286 		"/>
		<polygon fill-opacity="0.1" points="249.3,143 290.6,71.5 331.8,143 		"/>
	</g>
	<g display="inline">
		<polygon fill="#FF4081" points="166.7,0 42.9,214.5 84.2,286 249.3,0 		"/>
		<polygon fill="#FFFFFF" fill-opacity="0.2" points="166.7,0 208,71.5 249.3,0 		"/>
		<polygon fill="#FFFFFF" fill-opacity="0.1" points="125.4,71.5 166.7,0 208,71.5 		"/>
		<polygon fill="#FFFFFF" fill-opacity="0" points="125.4,71.5 166.7,143 208,71.5 		"/>
		<polygon fill-opacity="0.2" points="84.2,143 125.4,214.5 166.7,143 		"/>
		<polygon fill-opacity="0.3" points="42.9,214.5 84.2,143 125.4,214.5 		"/>
		<polygon fill-opacity="0.4" points="42.9,214.5 84.2,286 125.4,214.5 		"/>
		<polygon fill-opacity="0.1" points="84.2,143 125.4,71.5 166.7,143 		"/>
	</g>
	<rect y="-65" display="inline" fill="none" width="416" height="416"/>
	<g display="inline">
		<polygon fill="#303F9F" points="84.2,143 42.9,214.5 84.2,286 166.7,286 		"/>
		<polygon fill="#3F51B5" points="331.8,0 249.3,0 331.8,143 373.1,71.5 		"/>
		<polygon fill="#7986CB" points="373.1,71.5 249.3,286 331.8,286 414.4,143 		"/>
		<polygon fill="#536DFE" points="84.2,0 1.6,143 42.9,214.5 166.7,0 		"/>
		<polygon fill-opacity="0.5" points="249.3,0 290.6,71.5 331.8,0 		"/>
		<polygon fill-opacity="0.5" points="84.2,286 125.4,214.5 166.7,286 		"/>
		<polygon fill="#FFFFFF" fill-opacity="0.2" points="84.2,0 125.4,71.5 166.7,0 		"/>
		<polygon fill="#FFFFFF" fill-opacity="0.1" points="42.9,71.5 84.2,0 125.4,71.5 		"/>
		<polygon fill="#FFFFFF" fill-opacity="0" points="42.9,71.5 84.2,143 125.4,71.5 		"/>
		<polygon fill-opacity="0.1" points="1.6,143 42.9,71.5 84.2,143 		"/>
		<polygon fill-opacity="0.2" points="1.6,143 42.9,214.5 84.2,143 		"/>
		<polygon fill="#FFFFFF" fill-opacity="0" points="125.4,214.5 84.2,143 42.9,214.5 		"/>
		<polygon fill="#FFFFFF" fill-opacity="0" points="373.1,71.5 331.8,143 290.6,71.5 		"/>
		<g>
			<polygon fill="#FFFFFF" fill-opacity="0.2" points="331.8,143 373.1,71.5 414.4,143 			"/>
			<polygon fill="#FFFFFF" fill-opacity="0.1" points="331.8,143 373.1,214.5 414.4,143 			"/>
			<polygon fill="#FFFFFF" fill-opacity="0" points="290.6,214.5 331.8,143 373.1,214.5 			"/>
			<polygon fill-opacity="0.1" points="290.6,214.5 331.8,286 373.1,214.5 			"/>
			<polygon fill-opacity="0.2" points="249.3,286 290.6,214.5 331.8,286 			"/>
		</g>
		<polygon fill-opacity="0.2" points="125.4,214.5 84.2,286 42.9,214.5 		"/>
		<polygon fill-opacity="0.2" points="373.1,71.5 331.8,0 290.6,71.5 		"/>
	</g>
</g>
<g display="none">
	<g display="inline">
		<polygon fill="#9F499B" points="249.3,0 84.2,286 166.7,286 331.8,0 		"/>
		<polygon fill="#FFFFFF" fill-opacity="0.2" points="249.3,0 290.6,71.5 331.8,0 		"/>
		<polygon fill="#FFFFFF" fill-opacity="0.1" points="208,71.5 249.3,0 290.6,71.5 		"/>
		<polygon fill="#FFFFFF" fill-opacity="0" points="208,71.5 249.3,143 290.6,71.5 		"/>
		<polygon fill-opacity="0.2" points="166.7,143 208,214.5 249.3,143 		"/>
		<polygon fill-opacity="0.3" points="125.4,214.5 166.7,143 208,214.5 		"/>
		<polygon fill-opacity="0.4" points="125.4,214.5 166.7,286 208,214.5 		"/>
		<polygon fill-opacity="0.5" points="84.2,286 125.4,214.5 166.7,286 		"/>
		<polygon fill-opacity="0.1" points="166.7,143 208,71.5 249.3,143 		"/>
	</g>
	<g display="inline">
		<polygon fill="#9F499B" points="331.8,0 166.7,286 249.3,286 373.1,71.5 		"/>
		<polygon fill="#FFFFFF" fill-opacity="0.1" points="290.6,71.5 331.8,0 373.1,71.5 		"/>
		<polygon fill="#FFFFFF" fill-opacity="0" points="290.6,71.5 331.8,143 373.1,71.5 		"/>
		<polygon fill-opacity="0.2" points="249.3,143 290.6,214.5 331.8,143 		"/>
		<polygon fill-opacity="0.3" points="208,214.5 249.3,143 290.6,214.5 		"/>
		<polygon fill-opacity="0.4" points="208,214.5 249.3,286 290.6,214.5 		"/>
		<polygon fill-opacity="0.5" points="166.7,286 208,214.5 249.3,286 		"/>
		<polygon fill-opacity="0.1" points="249.3,143 290.6,71.5 331.8,143 		"/>
	</g>
	<g display="inline">
		<polygon fill="#9F499B" points="373.1,71.5 249.3,286 331.8,286 414.4,143 		"/>
		<polygon fill-opacity="0.2" points="331.8,143 373.1,214.5 414.4,143 		"/>
		<polygon fill-opacity="0.3" points="290.6,214.5 331.8,143 373.1,214.5 		"/>
		<polygon fill-opacity="0.4" points="290.6,214.5 331.8,286 373.1,214.5 		"/>
		<polygon fill-opacity="0.5" points="249.3,286 290.6,214.5 331.8,286 		"/>
		<polygon fill-opacity="0.1" points="331.8,143 373.1,71.5 414.4,143 		"/>
	</g>
	<g display="inline">
		<polygon fill="#9F499B" points="166.7,0 42.9,214.5 84.2,286 249.3,0 		"/>
		<polygon fill="#FFFFFF" fill-opacity="0.2" points="166.7,0 208,71.5 249.3,0 		"/>
		<polygon fill="#FFFFFF" fill-opacity="0.1" points="125.4,71.5 166.7,0 208,71.5 		"/>
		<polygon fill="#FFFFFF" fill-opacity="0" points="125.4,71.5 166.7,143 208,71.5 		"/>
		<polygon fill-opacity="0.2" points="84.2,143 125.4,214.5 166.7,143 		"/>
		<polygon fill-opacity="0.3" points="42.9,214.5 84.2,143 125.4,214.5 		"/>
		<polygon fill-opacity="0.4" points="42.9,214.5 84.2,286 125.4,214.5 		"/>
		<polygon fill-opacity="0.1" points="84.2,143 125.4,71.5 166.7,143 		"/>
	</g>
	<g display="inline">
		<polygon fill="#9F499B" points="84.2,0 1.6,143 42.9,214.5 166.7,0 		"/>
		<polygon fill="#FFFFFF" fill-opacity="0.2" points="84.2,0 125.4,71.5 166.7,0 		"/>
		<polygon fill="#FFFFFF" fill-opacity="0.1" points="42.9,71.5 84.2,0 125.4,71.5 		"/>
		<polygon fill="#FFFFFF" fill-opacity="0" points="42.9,71.5 84.2,143 125.4,71.5 		"/>
		<polygon fill-opacity="0.2" points="1.6,143 42.9,214.5 84.2,143 		"/>
		<polygon fill-opacity="0.1" points="1.6,143 42.9,71.5 84.2,143 		"/>
	</g>
	<rect y="-65" display="inline" fill="none" width="416" height="416"/>
</g>
</svg>
