<?xml version="1.0" encoding="utf-8"?>
<!-- Generator: Adobe Illustrator 17.1.0, SVG Export Plug-In . SVG Version: 6.00 Build 0)  -->
<!DOCTYPE svg PUBLIC "-//W3C//DTD SVG 1.1//EN" "http://www.w3.org/Graphics/SVG/1.1/DTD/svg11.dtd">
<svg version="1.1" id="Layer_1" xmlns="http://www.w3.org/2000/svg" xmlns:xlink="http://www.w3.org/1999/xlink" x="0px" y="0px"
	 viewBox="0 0 416 286" enable-background="new 0 0 416 286" xml:space="preserve">
<g>
	<g>
		<g enable-background="new    ">
			<g>
				<polygon fill="#D1547E" points="318.8,8.2 311.8,29.2 280.7,81.9 285.9,63.6 				"/>
			</g>
			<g>
				<polygon fill="#A72A54" points="318.8,8.2 311.8,29.2 280.7,81.9 285.9,63.6 				"/>
			</g>
			<g>
				<polygon fill="#7287F8" points="171.1,8.2 130.1,63.6 97.2,8.2 				"/>
			</g>
			<g>
				<polygon fill="#F96396" points="318.8,8.2 285.9,63.6 244.9,8.2 				"/>
			</g>
			<g>
				<polygon fill="#D1547E" points="285.9,63.6 280.7,81.9 242.6,29.2 244.9,8.2 				"/>
			</g>
			<g>
				<polygon opacity="0.102" fill="#D1D1D1" points="244.9,8.2 242.6,29.2 208,81.9 208,63.6 				"/>
			</g>
			<g>
				<polygon fill="#F9518A" points="244.9,8.2 285.9,63.6 208,63.6 				"/>
			</g>
			<g>
				<polygon fill="#D14474" points="285.9,63.6 280.7,81.9 208,81.9 208,63.6 				"/>
			</g>
			<g>
				<polygon fill="#6071D0" points="171.1,8.2 173.4,29.2 135.3,81.9 130.1,63.6 				"/>
			</g>
			<g>
				<polygon fill="#293577" points="363.7,63.6 353.4,81.9 280.7,81.9 285.9,63.6 				"/>
			</g>
			<g>
				<polygon fill="#313F8D" points="318.8,8.2 363.7,63.6 285.9,63.6 				"/>
			</g>
			<g>
				<polygon fill="#6071D0" points="130.1,63.6 135.3,81.9 104.2,29.2 97.2,8.2 				"/>
			</g>
			<g>
				<polygon fill="#5366D0" points="130.1,63.6 135.3,81.9 62.6,81.9 52.3,63.6 				"/>
			</g>
			<g>
				<polygon fill="#4459D0" points="97.2,8.2 104.2,29.2 62.6,81.9 52.3,63.6 				"/>
			</g>
			<g>
				<polygon fill="#6379F8" points="97.2,8.2 130.1,63.6 52.3,63.6 				"/>
			</g>
			<g>
				<polygon fill="#D1346A" points="285.9,63.6 285.9,63.6 285.9,63.6 				"/>
			</g>
			<g>
				<polygon fill="#D1346A" points="285.9,63.6 280.7,81.9 280.7,81.9 285.9,63.6 				"/>
			</g>
			<g>
				<polygon fill="#D1346A" points="285.9,63.6 280.7,81.9 280.7,81.9 285.9,63.6 				"/>
			</g>
			<g>
				<polygon opacity="0.102" points="208,63.6 208,81.9 188.6,111.4 187.2,94.7 				"/>
			</g>
			<g>
				<polygon fill="#6570AA" points="331.4,125.2 322.8,140.2 353.4,81.9 363.7,63.6 				"/>
			</g>
			<g>
				<polygon fill="#7C84B2" points="331.4,125.2 322.8,140.2 353.4,81.9 363.7,63.6 				"/>
			</g>
			<g>
				<polygon fill="#3D4FB1" points="363.7,63.6 331.4,125.2 285.9,63.6 				"/>
			</g>
			<g>
				<polygon fill="#344294" points="331.4,125.2 322.8,140.2 280.7,81.9 285.9,63.6 				"/>
			</g>
			<g>
				<polygon fill="#F93E7E" points="285.9,63.6 249.1,125.2 208,63.6 				"/>
			</g>
			<g>
				<polygon fill="#D1346A" points="285.9,63.6 280.7,81.9 246.3,140.2 249.1,125.2 				"/>
			</g>
			<g>
				<polygon fill="#D1346A" points="249.1,125.2 246.3,140.2 208,81.9 208,63.6 				"/>
			</g>
			<g>
				<polygon fill="#D1346A" points="187.2,94.7 188.6,111.4 169.7,140.2 166.9,125.2 				"/>
			</g>
			<g>
				<polygon fill="#DF3871" points="208,63.6 249.1,125.2 166.9,125.2 187.2,94.7 				"/>
			</g>
			<g>
				<polygon fill="#7982AF" points="413.7,125.2 399.4,140.2 322.8,140.2 331.4,125.2 				"/>
			</g>
			<g>
				<polygon fill="#909AD0" points="363.7,63.6 413.7,125.2 331.4,125.2 				"/>
			</g>
			<g>
				<polygon fill="#4459D0" points="52.3,63.6 62.6,81.9 16.7,140.2 2.3,125.2 				"/>
			</g>
			<g>
				<polygon fill="#4053C2" points="52.3,63.6 62.6,81.9 93.2,140.2 84.6,125.2 				"/>
			</g>
			<g>
				<polygon fill="#516AF8" points="130.1,63.6 84.6,125.2 52.3,63.6 				"/>
			</g>
			<g>
				<polygon fill="#4459D0" points="130.1,63.6 135.3,81.9 93.2,140.2 84.6,125.2 				"/>
			</g>
			<g>
				<polygon fill="#4960DE" points="52.3,63.6 84.6,125.2 2.3,125.2 				"/>
			</g>
			<g>
				<polygon fill="#BC2F5F" points="249.1,125.2 246.3,140.2 169.7,140.2 166.9,125.2 				"/>
			</g>
			<g>
				<polygon fill="#3E50BB" points="84.6,125.2 93.2,140.2 16.7,140.2 2.3,125.2 				"/>
			</g>
			<g>
				<polygon fill="#516AF8" points="2.3,125.2 97.2,8.2 52.3,63.6 				"/>
			</g>
			<g>
				<polygon fill="#516AF8" points="130.1,63.6 171.1,8.2 84.6,125.2 				"/>
			</g>
			<g>
				<polygon fill="#4459D0" points="171.1,8.2 173.4,29.2 93.2,140.3 84.6,125.2 				"/>
			</g>
			<g>
				<polygon fill="#D1346A" points="166.9,125.2 169.7,140.2 130.4,200.2 124.2,189.1 				"/>
			</g>
			<g>
				<polygon fill="#F93E7E" points="187.2,94.7 166.9,125.2 124.2,189.1 				"/>
			</g>
			<g>
				<polygon fill="#6F78AB" points="382.5,194.3 369.7,205.1 322.8,140.2 331.4,125.2 				"/>
			</g>
			<g>
				<polygon fill="#636EA6" points="382.5,194.3 369.7,205.1 288.8,205.1 295.3,194.3 				"/>
			</g>
			<g>
				<polygon fill="#6570AA" points="382.5,194.3 369.7,205.1 399.4,140.2 413.7,125.2 				"/>
			</g>
			<g>
				<polygon fill="#7683C6" points="331.4,125.2 382.5,194.3 295.3,194.3 				"/>
			</g>
			<g>
				<polygon fill="#848ECB" points="413.7,125.2 382.5,194.3 331.4,125.2 				"/>
			</g>
			<g>
				<polygon fill="#A72A54" points="249.1,125.2 246.3,140.2 208,205.1 208,194.3 				"/>
			</g>
			<g>
				<polygon fill="#6570AA" points="295.3,194.3 288.8,205.1 322.8,140.2 331.4,125.2 				"/>
			</g>
			<g>
				<polygon fill="#C73264" points="249.1,125.2 208,194.3 166.9,125.2 				"/>
			</g>
			<g>
				<polygon fill="#3647A6" points="84.6,125.2 93.2,140.2 46.3,205.1 33.5,194.3 				"/>
			</g>
			<g>
				<polygon fill="#4459D0" points="84.6,125.2 93.2,140.2 46.3,205.1 33.5,194.3 				"/>
			</g>
			<g>
				<polygon fill="#293687" points="84.6,125.2 93.2,140.3 127.2,205.1 120.7,194.3 				"/>
			</g>
			<g>
				<polygon fill="#A72A54" points="208,194.3 208,205.1 169.7,140.2 166.9,125.2 				"/>
			</g>
			<g>
				<polygon fill="#AE2C58" points="166.9,125.2 208,194.3 120.7,194.3 124.2,189.1 				"/>
			</g>
			<g>
				<polygon fill="#4055C6" points="84.6,125.2 33.5,194.3 2.3,125.2 				"/>
			</g>
			<g>
				<polygon fill="#2F3D9B" points="84.6,125.2 120.7,194.3 33.5,194.3 				"/>
			</g>
			<g>
				<polygon fill="#273482" points="120.7,194.3 127.2,205.1 46.3,205.1 33.5,194.3 				"/>
			</g>
			<g>
				<polygon fill="#58162C" points="208,194.3 208,205.1 127.2,205.1 120.7,194.3 				"/>
			</g>
			<g>
				<polygon fill="#92254A" points="208,194.3 208,205.1 127.2,205.1 120.7,194.3 				"/>
			</g>
			<g>
				<polygon fill="#596295" points="347.3,272.3 336.4,277.6 288.8,205.1 295.3,194.3 				"/>
			</g>
			<g>
				<polygon fill="#515987" points="254.4,272.3 250.8,277.6 288.8,205.1 295.3,194.3 				"/>
			</g>
			<g>
				<polygon opacity="0.502" points="120.7,194.3 127.2,205.1 79.6,277.6 68.7,272.3 				"/>
			</g>
			<g>
				<polygon fill="#1F2968" points="120.7,194.3 127.2,205.1 79.6,277.6 68.7,272.3 				"/>
			</g>
			<g>
				<polygon fill="#681A34" points="161.6,272.3 165.2,277.6 79.6,277.6 68.7,272.3 				"/>
			</g>
			<g>
				<polygon fill="#411020" points="120.7,194.3 127.2,205.1 165.2,277.6 161.6,272.3 				"/>
			</g>
			<g>
				<polygon fill="#6C1B36" points="120.7,194.3 127.2,205.1 165.2,277.6 161.6,272.3 				"/>
			</g>
			<g>
				<polygon fill="#7C1F3E" points="120.7,194.3 161.6,272.3 68.7,272.3 				"/>
			</g>
			<g>
				<polygon fill="#7D1F3F" points="208,194.3 208,205.1 165.2,277.6 161.6,272.3 				"/>
			</g>
			<g>
				<polygon fill="#95254B" points="208,194.3 161.6,272.3 120.7,194.3 				"/>
			</g>
			<g>
				<polygon fill="#25317C" points="120.7,194.3 68.7,272.3 33.5,194.3 				"/>
			</g>
			<g>
				<polygon fill="#6570AA" points="347.3,272.3 336.4,277.6 369.7,205.1 382.5,194.3 				"/>
			</g>
			<g>
				<polygon fill="#6A75B2" points="382.5,194.3 347.3,272.3 295.3,194.3 				"/>
			</g>
			<g>
				<polygon fill="#5F689E" points="295.3,194.3 347.3,272.3 254.4,272.3 				"/>
			</g>
			<g>
				<polygon fill="#505885" points="347.3,272.3 336.4,277.6 250.8,277.6 254.4,272.3 				"/>
			</g>
			<g>
				<polygon fill="#7683C6" points="382.5,194.3 413.7,125.2 347.3,272.3 				"/>
			</g>
			<g>
				<polygon fill="#7683C6" points="331.4,125.2 295.3,194.3 254.4,272.3 				"/>
			</g>
			<g>
				<polygon fill="#6570AA" points="254.4,272.3 250.8,277.6 322.8,140.2 331.4,125.2 				"/>
			</g>
			<g>
				<polygon fill="#F93E7E" points="285.9,63.6 161.6,272.3 208,194.3 249.1,125.2 				"/>
			</g>
			<g>
				<polygon fill="#D1346A" points="285.9,63.6 280.7,81.9 165.2,277.6 161.6,272.3 				"/>
			</g>
		</g>
	</g>
</g>
<g display="none">
	<g display="inline">
		<polygon fill="#303F9F" points="84.2,133 42.9,204.5 84.2,276 166.7,276 		"/>
		<polygon fill="#3F51B5" points="331.8,-10 249.3,-10 331.8,133 373.1,61.5 		"/>
		<polygon fill="#7986CB" points="373.1,61.5 249.3,276 331.8,276 414.4,133 		"/>
		<polygon fill="#536DFE" points="84.2,-10 1.6,133 42.9,204.5 166.7,-10 		"/>
		<polygon fill-opacity="0.5" points="249.3,-10 290.6,61.5 331.8,-10 		"/>
		<polygon fill-opacity="0.5" points="84.2,276 125.4,204.5 166.7,276 		"/>
		<polygon fill="#FFFFFF" fill-opacity="0.2" points="84.2,-10 125.4,61.5 166.7,-10 		"/>
		<polygon fill="#FFFFFF" fill-opacity="0.1" points="42.9,61.5 84.2,-10 125.4,61.5 		"/>
		<polygon fill="#FFFFFF" fill-opacity="0" points="42.9,61.5 84.2,133 125.4,61.5 		"/>
		<polygon fill-opacity="0.1" points="1.6,133 42.9,61.5 84.2,133 		"/>
		<polygon fill-opacity="0.2" points="1.6,133 42.9,204.5 84.2,133 		"/>
		<polygon fill="#FFFFFF" fill-opacity="0" points="125.4,204.5 84.2,133 42.9,204.5 		"/>
		<polygon fill="#FFFFFF" fill-opacity="0" points="373.1,61.5 331.8,133 290.6,61.5 		"/>
		<g>
			<polygon fill="#FFFFFF" fill-opacity="0.2" points="331.8,133 373.1,61.5 414.4,133 			"/>
			<polygon fill="#FFFFFF" fill-opacity="0.1" points="331.8,133 373.1,204.5 414.4,133 			"/>
			<polygon fill="#FFFFFF" fill-opacity="0" points="290.6,204.5 331.8,133 373.1,204.5 			"/>
			<polygon fill-opacity="0.1" points="290.6,204.5 331.8,276 373.1,204.5 			"/>
			<polygon fill-opacity="0.2" points="249.3,276 290.6,204.5 331.8,276 			"/>
		</g>
		<polygon fill-opacity="0.2" points="125.4,204.5 84.2,276 42.9,204.5 		"/>
		<polygon fill-opacity="0.2" points="373.1,61.5 331.8,-10 290.6,61.5 		"/>
	</g>
	<rect y="-75" display="inline" fill="none" width="416" height="416"/>
</g>
<g display="none">
	<g display="inline">
		<polygon fill="#FF4081" points="249.3,-10 84.2,276 166.7,276 331.8,-10 		"/>
		<polygon fill="#FFFFFF" fill-opacity="0.2" points="249.3,-10 290.6,61.5 331.8,-10 		"/>
		<polygon fill="#FFFFFF" fill-opacity="0.1" points="208,61.5 249.3,-10 290.6,61.5 		"/>
		<polygon fill="#FFFFFF" fill-opacity="0" points="208,61.5 249.3,133 290.6,61.5 		"/>
		<polygon fill-opacity="0.2" points="166.7,133 208,204.5 249.3,133 		"/>
		<polygon fill-opacity="0.3" points="125.4,204.5 166.7,133 208,204.5 		"/>
		<polygon fill-opacity="0.4" points="125.4,204.5 166.7,276 208,204.5 		"/>
		<polygon fill-opacity="0.5" points="84.2,276 125.4,204.5 166.7,276 		"/>
		<polygon fill-opacity="0.1" points="166.7,133 208,61.5 249.3,133 		"/>
	</g>
	<g display="inline">
		<polygon fill="#FF4081" points="331.8,-10 166.7,276 249.3,276 373.1,61.5 		"/>
		<polygon fill="#FFFFFF" fill-opacity="0.1" points="290.6,61.5 331.8,-10 373.1,61.5 		"/>
		<polygon fill="#FFFFFF" fill-opacity="0" points="290.6,61.5 331.8,133 373.1,61.5 		"/>
		<polygon fill-opacity="0.2" points="249.3,133 290.6,204.5 331.8,133 		"/>
		<polygon fill-opacity="0.3" points="208,204.5 249.3,133 290.6,204.5 		"/>
		<polygon fill-opacity="0.4" points="208,204.5 249.3,276 290.6,204.5 		"/>
		<polygon fill-opacity="0.5" points="166.7,276 208,204.5 249.3,276 		"/>
		<polygon fill-opacity="0.1" points="249.3,133 290.6,61.5 331.8,133 		"/>
	</g>
	<g display="inline">
		<polygon fill="#FF4081" points="166.7,-10 42.9,204.5 84.2,276 249.3,-10 		"/>
		<polygon fill="#FFFFFF" fill-opacity="0.2" points="166.7,-10 208,61.5 249.3,-10 		"/>
		<polygon fill="#FFFFFF" fill-opacity="0.1" points="125.4,61.5 166.7,-10 208,61.5 		"/>
		<polygon fill="#FFFFFF" fill-opacity="0" points="125.4,61.5 166.7,133 208,61.5 		"/>
		<polygon fill-opacity="0.2" points="84.2,133 125.4,204.5 166.7,133 		"/>
		<polygon fill-opacity="0.3" points="42.9,204.5 84.2,133 125.4,204.5 		"/>
		<polygon fill-opacity="0.4" points="42.9,204.5 84.2,276 125.4,204.5 		"/>
		<polygon fill-opacity="0.1" points="84.2,133 125.4,61.5 166.7,133 		"/>
	</g>
	<rect y="-75" display="inline" fill="none" width="416" height="416"/>
	<g display="inline">
		<polygon fill="#303F9F" points="84.2,133 42.9,204.5 84.2,276 166.7,276 		"/>
		<polygon fill="#3F51B5" points="331.8,-10 249.3,-10 331.8,133 373.1,61.5 		"/>
		<polygon fill="#7986CB" points="373.1,61.5 249.3,276 331.8,276 414.4,133 		"/>
		<polygon fill="#536DFE" points="84.2,-10 1.6,133 42.9,204.5 166.7,-10 		"/>
		<polygon fill-opacity="0.5" points="249.3,-10 290.6,61.5 331.8,-10 		"/>
		<polygon fill-opacity="0.5" points="84.2,276 125.4,204.5 166.7,276 		"/>
		<polygon fill="#FFFFFF" fill-opacity="0.2" points="84.2,-10 125.4,61.5 166.7,-10 		"/>
		<polygon fill="#FFFFFF" fill-opacity="0.1" points="42.9,61.5 84.2,-10 125.4,61.5 		"/>
		<polygon fill="#FFFFFF" fill-opacity="0" points="42.9,61.5 84.2,133 125.4,61.5 		"/>
		<polygon fill-opacity="0.1" points="1.6,133 42.9,61.5 84.2,133 		"/>
		<polygon fill-opacity="0.2" points="1.6,133 42.9,204.5 84.2,133 		"/>
		<polygon fill="#FFFFFF" fill-opacity="0" points="125.4,204.5 84.2,133 42.9,204.5 		"/>
		<polygon fill="#FFFFFF" fill-opacity="0" points="373.1,61.5 331.8,133 290.6,61.5 		"/>
		<g>
			<polygon fill="#FFFFFF" fill-opacity="0.2" points="331.8,133 373.1,61.5 414.4,133 			"/>
			<polygon fill="#FFFFFF" fill-opacity="0.1" points="331.8,133 373.1,204.5 414.4,133 			"/>
			<polygon fill="#FFFFFF" fill-opacity="0" points="290.6,204.5 331.8,133 373.1,204.5 			"/>
			<polygon fill-opacity="0.1" points="290.6,204.5 331.8,276 373.1,204.5 			"/>
			<polygon fill-opacity="0.2" points="249.3,276 290.6,204.5 331.8,276 			"/>
		</g>
		<polygon fill-opacity="0.2" points="125.4,204.5 84.2,276 42.9,204.5 		"/>
		<polygon fill-opacity="0.2" points="373.1,61.5 331.8,-10 290.6,61.5 		"/>
	</g>
</g>
<g display="none">
	<g display="inline">
		<polygon fill="#9F499B" points="249.3,-10 84.2,276 166.7,276 331.8,-10 		"/>
		<polygon fill="#FFFFFF" fill-opacity="0.2" points="249.3,-10 290.6,61.5 331.8,-10 		"/>
		<polygon fill="#FFFFFF" fill-opacity="0.1" points="208,61.5 249.3,-10 290.6,61.5 		"/>
		<polygon fill="#FFFFFF" fill-opacity="0" points="208,61.5 249.3,133 290.6,61.5 		"/>
		<polygon fill-opacity="0.2" points="166.7,133 208,204.5 249.3,133 		"/>
		<polygon fill-opacity="0.3" points="125.4,204.5 166.7,133 208,204.5 		"/>
		<polygon fill-opacity="0.4" points="125.4,204.5 166.7,276 208,204.5 		"/>
		<polygon fill-opacity="0.5" points="84.2,276 125.4,204.5 166.7,276 		"/>
		<polygon fill-opacity="0.1" points="166.7,133 208,61.5 249.3,133 		"/>
	</g>
	<g display="inline">
		<polygon fill="#9F499B" points="331.8,-10 166.7,276 249.3,276 373.1,61.5 		"/>
		<polygon fill="#FFFFFF" fill-opacity="0.1" points="290.6,61.5 331.8,-10 373.1,61.5 		"/>
		<polygon fill="#FFFFFF" fill-opacity="0" points="290.6,61.5 331.8,133 373.1,61.5 		"/>
		<polygon fill-opacity="0.2" points="249.3,133 290.6,204.5 331.8,133 		"/>
		<polygon fill-opacity="0.3" points="208,204.5 249.3,133 290.6,204.5 		"/>
		<polygon fill-opacity="0.4" points="208,204.5 249.3,276 290.6,204.5 		"/>
		<polygon fill-opacity="0.5" points="166.7,276 208,204.5 249.3,276 		"/>
		<polygon fill-opacity="0.1" points="249.3,133 290.6,61.5 331.8,133 		"/>
	</g>
	<g display="inline">
		<polygon fill="#9F499B" points="373.1,61.5 249.3,276 331.8,276 414.4,133 		"/>
		<polygon fill-opacity="0.2" points="331.8,133 373.1,204.5 414.4,133 		"/>
		<polygon fill-opacity="0.3" points="290.6,204.5 331.8,133 373.1,204.5 		"/>
		<polygon fill-opacity="0.4" points="290.6,204.5 331.8,276 373.1,204.5 		"/>
		<polygon fill-opacity="0.5" points="249.3,276 290.6,204.5 331.8,276 		"/>
		<polygon fill-opacity="0.1" points="331.8,133 373.1,61.5 414.4,133 		"/>
	</g>
	<g display="inline">
		<polygon fill="#9F499B" points="166.7,-10 42.9,204.5 84.2,276 249.3,-10 		"/>
		<polygon fill="#FFFFFF" fill-opacity="0.2" points="166.7,-10 208,61.5 249.3,-10 		"/>
		<polygon fill="#FFFFFF" fill-opacity="0.1" points="125.4,61.5 166.7,-10 208,61.5 		"/>
		<polygon fill="#FFFFFF" fill-opacity="0" points="125.4,61.5 166.7,133 208,61.5 		"/>
		<polygon fill-opacity="0.2" points="84.2,133 125.4,204.5 166.7,133 		"/>
		<polygon fill-opacity="0.3" points="42.9,204.5 84.2,133 125.4,204.5 		"/>
		<polygon fill-opacity="0.4" points="42.9,204.5 84.2,276 125.4,204.5 		"/>
		<polygon fill-opacity="0.1" points="84.2,133 125.4,61.5 166.7,133 		"/>
	</g>
	<g display="inline">
		<polygon fill="#9F499B" points="84.2,-10 1.6,133 42.9,204.5 166.7,-10 		"/>
		<polygon fill="#FFFFFF" fill-opacity="0.2" points="84.2,-10 125.4,61.5 166.7,-10 		"/>
		<polygon fill="#FFFFFF" fill-opacity="0.1" points="42.9,61.5 84.2,-10 125.4,61.5 		"/>
		<polygon fill="#FFFFFF" fill-opacity="0" points="42.9,61.5 84.2,133 125.4,61.5 		"/>
		<polygon fill-opacity="0.2" points="1.6,133 42.9,204.5 84.2,133 		"/>
		<polygon fill-opacity="0.1" points="1.6,133 42.9,61.5 84.2,133 		"/>
	</g>
	<rect y="-75" display="inline" fill="none" width="416" height="416"/>
</g>
<g display="none">
	<g display="inline">
		<g enable-background="new    ">
			<g>
				<polygon fill="#29357C" points="218.6,64.4 217.9,94.1 174.3,96.1 172.1,66.1 				"/>
			</g>
			<g>
				<polygon fill="#2E3C8C" points="218.6,64.4 172.1,66.1 118.6,68 				"/>
			</g>
			<g>
				<polygon fill="#29357C" points="172.1,66.1 174.3,96.1 124.3,98.3 118.6,68 				"/>
			</g>
			<g>
				<polygon fill="#253274" points="118.6,68 124.3,98.3 120.8,104.4 114.6,73.2 				"/>
			</g>
			<g>
				<polygon fill="#38448C" points="218.6,64.4 217.9,94.1 208.4,112.8 208.6,80.6 				"/>
			</g>
			<g>
				<polygon fill="#404C8C" points="257.5,77.7 208.6,80.6 218.6,64.4 				"/>
			</g>
			<g>
				<polygon fill="#39447C" points="257.5,77.7 254,109.5 208.4,112.8 208.6,80.6 				"/>
			</g>
			<g>
				<polygon fill="#38448C" points="218.6,64.4 208.6,80.6 172.1,66.1 				"/>
			</g>
			<g>
				<polygon fill="#323D7C" points="208.6,80.6 208.4,112.8 174.3,96.1 172.1,66.1 				"/>
			</g>
			<g>
				<polygon fill="#29367D" points="172.1,66.1 174.3,96.1 155.4,116.7 151.4,83.9 				"/>
			</g>
			<g>
				<polygon fill="#29357C" points="208.6,80.6 208.4,112.8 155.4,116.7 151.4,83.9 				"/>
			</g>
			<g>
				<polygon fill="#29357C" points="257.5,77.7 254,109.5 155.4,116.7 151.4,83.9 				"/>
			</g>
			<g>
				<polygon fill="#242F6E" points="257.5,77.7 254,109.5 246.5,115 249.5,82.5 				"/>
			</g>
			<g>
				<polygon fill="#25306F" points="151.4,83.9 155.4,116.7 124.3,98.3 118.6,68 				"/>
			</g>
			<g>
				<polygon fill="#29367D" points="172.1,66.1 151.4,83.9 118.6,68 				"/>
			</g>
			<g>
				<polygon fill="#2E3C8C" points="257.5,77.7 151.4,83.9 208.6,80.6 				"/>
			</g>
			<g>
				<polygon fill="#2E3C8C" points="208.6,80.6 151.4,83.9 172.1,66.1 				"/>
			</g>
			<g>
				<polygon fill="#202B63" points="151.4,83.9 155.4,116.7 92.8,121.3 83.7,87.9 				"/>
			</g>
			<g>
				<polygon fill="#243070" points="151.4,83.9 83.7,87.9 118.6,68 114.6,73.2 118.6,68 				"/>
			</g>
			<g>
				<polygon fill="#1A2257" points="151.4,83.9 155.4,116.7 149.7,122.9 145.1,89.3 				"/>
			</g>
			<g>
				<polygon fill="#171F4C" points="151.4,83.9 155.4,116.7 150.3,122.8 145.7,89.3 				"/>
			</g>
			<g>
				<polygon fill="#263276" points="257.5,77.7 249.5,82.5 145.7,89.3 151.4,83.9 				"/>
			</g>
			<g>
				<polygon fill="#222D68" points="249.5,82.5 246.5,115 150.3,122.8 145.7,89.3 				"/>
			</g>
			<g>
				<polygon fill="#181F4E" points="91.3,92.8 100.1,126.9 92.8,121.3 83.7,87.9 				"/>
			</g>
			<g>
				<polygon fill="#7D1F3F" points="224.4,101.7 223,136.8 194.7,140 193.6,104.5 				"/>
			</g>
			<g>
				<polygon fill="#1A2257" points="145.1,89.3 149.7,122.9 127,147.6 119.6,111.3 				"/>
			</g>
			<g>
				<polygon fill="#171E4C" points="145.7,89.3 150.3,122.8 127.7,147.5 120.4,111.2 				"/>
			</g>
			<g>
				<polygon fill="#8D2347" points="224.4,101.7 193.6,104.5 125.4,110.8 				"/>
			</g>
			<g>
				<polygon fill="#7D1F3F" points="193.6,104.5 194.7,140 132.3,147 125.4,110.8 				"/>
			</g>
			<g>
				<polygon fill="#1B2258" points="145.1,89.3 119.6,111.3 91.3,92.8 83.7,87.9 151.4,83.9 				"/>
			</g>
			<g>
				<polygon fill="#181F4E" points="119.6,111.3 127,147.6 100.1,126.9 91.3,92.8 				"/>
			</g>
			<g>
				<polygon fill="#171F4C" points="151.4,83.9 145.7,89.3 120.4,111.2 119.6,111.3 				"/>
			</g>
			<g>
				<polygon fill="#151B44" points="120.4,111.2 127.7,147.5 127,147.6 119.6,111.3 				"/>
			</g>
			<g>
				<polygon fill="#151C46" points="91.3,92.8 119.6,111.3 27.9,119.7 83.7,87.9 				"/>
			</g>
			<g>
				<polygon fill="#13193E" points="119.6,111.3 127,147.6 43.8,157 27.9,119.7 				"/>
			</g>
			<g>
				<polygon fill="#7D324B" points="367.5,115.2 353.6,151.8 305.1,160.2 314.7,122.8 				"/>
			</g>
			<g>
				<polygon fill="#7D324B" points="314.7,122.8 305.1,160.2 298.2,128.3 305.8,94.2 				"/>
			</g>
			<g>
				<polygon fill="#8D2E4E" points="305.8,94.2 314.7,122.8 254.6,98.9 				"/>
			</g>
			<g>
				<polygon fill="#8D3855" points="367.5,115.2 314.7,122.8 305.8,94.2 				"/>
			</g>
			<g>
				<polygon fill="#7D2945" points="314.7,122.8 305.1,160.2 250.9,133.6 254.6,98.9 				"/>
			</g>
			<g>
				<polygon fill="#7D1F40" points="254.6,98.9 250.9,133.6 246.1,170.4 250.2,132 				"/>
			</g>
			<g>
				<polygon fill="#7D1F3F" points="314.7,122.8 305.1,160.2 246.1,170.4 250.2,132 				"/>
			</g>
			<g>
				<polygon fill="#691A35" points="314.7,122.8 305.1,160.2 292.6,165.5 301.2,127.6 				"/>
			</g>
			<g>
				<polygon fill="#701C39" points="250.2,132 246.1,170.4 194.7,140 193.6,104.5 				"/>
			</g>
			<g>
				<polygon fill="#7E2040" points="254.6,98.9 250.2,132 193.6,104.5 224.4,101.7 				"/>
			</g>
			<g>
				<polygon fill="#8D2347" points="254.6,98.9 314.7,122.8 250.2,132 				"/>
			</g>
			<g>
				<polygon fill="#641932" points="250.2,132 246.1,170.4 239.3,171.5 242.7,133.1 				"/>
			</g>
			<g>
				<polygon fill="#621932" points="193.6,104.5 169.2,143.6 119.6,111.3 120.4,111.2 125.4,110.8 				"/>
			</g>
			<g>
				<polygon fill="#621932" points="193.6,104.5 194.7,140 172.9,183 169.2,143.6 				"/>
			</g>
			<g>
				<polygon fill="#701C39" points="250.2,132 242.7,133.1 169.2,143.6 193.6,104.5 				"/>
			</g>
			<g>
				<polygon fill="#641932" points="242.7,133.1 239.3,171.5 172.9,183 169.2,143.6 				"/>
			</g>
			<g>
				<polygon fill="#57162C" points="169.2,143.6 172.9,183 127,147.6 119.6,111.3 				"/>
			</g>
			<g>
				<polygon fill="#192047" points="396.4,155.3 376.6,195.3 305.1,160.2 314.7,122.8 				"/>
			</g>
			<g>
				<polygon fill="#1C2450" points="367.5,115.2 396.4,155.3 314.7,122.8 				"/>
			</g>
			<g>
				<polygon fill="#461123" points="119.6,111.3 127,147.6 79.8,199 64.7,158.6 				"/>
			</g>
			<g>
				<polygon fill="#4B1326" points="169.2,143.6 172.9,183 79.8,199 64.7,158.6 				"/>
			</g>
			<g>
				<polygon fill="#7D1F3F" points="242.7,133.1 239.3,171.5 79.8,199 64.7,158.6 				"/>
			</g>
			<g>
				<polygon fill="#8D2347" points="169.2,143.6 242.7,133.1 64.7,158.6 				"/>
			</g>
			<g>
				<polygon fill="#3E101F" points="64.7,158.6 79.8,199 43.8,157 27.9,119.7 				"/>
			</g>
			<g>
				<polygon fill="#54152A" points="169.2,143.6 64.7,158.6 119.6,111.3 				"/>
			</g>
			<g>
				<polygon fill="#461223" points="119.6,111.3 64.7,158.6 27.9,119.7 				"/>
			</g>
			<g>
				<polygon fill="#3B0F1D" points="64.7,158.6 60.2,163.3 26,125.5 27.9,119.7 				"/>
			</g>
			<g>
				<polygon fill="#3B0F1E" points="64.7,158.6 79.8,199 76.1,204 60.2,163.3 				"/>
			</g>
			<g>
				<polygon fill="#340D1A" points="60.2,163.3 76.1,204 42.5,163.3 26,125.5 				"/>
			</g>
			<g>
				<polygon fill="#691A35" points="301.2,127.6 292.6,165.5 76.1,204 60.2,163.3 				"/>
			</g>
			<g>
				<polygon fill="#761D3C" points="250.2,132 314.7,122.8 301.2,127.6 60.2,163.3 64.7,158.6 242.7,133.1 				"/>
			</g>
			<g>
				<polygon fill="#222D64" points="396.4,155.3 329.7,170.8 314.7,122.8 				"/>
			</g>
			<g>
				<polygon fill="#1F2859" points="329.7,170.8 316.1,211.8 305.1,160.2 314.7,122.8 				"/>
			</g>
			<g>
				<polygon fill="#1F2859" points="396.4,155.3 376.6,195.3 316.1,211.8 329.7,170.8 				"/>
			</g>
			<g>
				<polygon fill="#3E4259" points="396.4,155.3 376.6,195.3 316.1,211.8 329.7,170.8 				"/>
			</g>
			<g>
				<polygon fill="#1D2554" points="314.7,122.8 329.7,170.8 311.1,174.5 301.2,127.6 				"/>
			</g>
			<g>
				<polygon fill="#1A214A" points="329.7,170.8 316.1,211.8 299.3,215.6 311.1,174.5 				"/>
			</g>
			<g>
				<polygon fill="#1A214A" points="311.1,174.5 299.3,215.6 292.6,165.5 301.2,127.6 				"/>
			</g>
			<g>
				<polygon fill="#333855" points="329.7,170.8 316.1,211.8 248.5,230.1 254.2,188.4 				"/>
			</g>
			<g>
				<polygon fill="#333855" points="329.6,170.8 316,211.8 248.5,230.1 254.2,188.4 				"/>
			</g>
			<g>
				<polygon fill="#333855" points="254.2,188.4 248.5,230.1 237.9,233 242.2,191.2 				"/>
			</g>
			<g>
				<polygon fill="#333855" points="228.7,193.6 226.1,235.5 223.9,236 226.2,194.2 				"/>
			</g>
			<g>
				
					<rect x="204.1" y="215.1" transform="matrix(5.601699e-02 -0.9984 0.9984 5.601699e-02 -2.3084 427.7763)" fill="#333855" width="41.9" height="0"/>
			</g>
			<g>
				<polygon fill="#393F60" points="226.2,194.2 226.2,194.2 228.7,193.6 				"/>
			</g>
			<g>
				<polygon fill="#333855" points="242.2,191.2 237.9,233 224.6,236.6 227,194.7 				"/>
			</g>
			<g>
				<polygon fill="#292D44" points="226.2,194.2 223.9,236 124.7,262.9 112.2,220.6 				"/>
			</g>
			<g>
				<polygon fill="#333855" points="227,194.7 224.6,236.6 133.2,261.4 122,219.2 				"/>
			</g>
			<g>
				<polygon fill="#393F60" points="329.7,170.8 254.2,188.4 242.2,191.2 227,194.7 122,219.2 112.2,220.6 226.2,194.2 228.7,193.6 
					311.1,174.5 				"/>
			</g>
			<g>
				<polygon fill="#333855" points="122,219.2 133.2,261.4 124.7,262.9 112.2,220.6 				"/>
			</g>
			<g>
				<polygon fill="#515776" points="396.4,155.3 450,229.4 329.7,170.8 				"/>
			</g>
			<g>
				<polygon fill="#484D68" points="450,229.4 417,271.5 316.1,211.8 329.7,170.8 				"/>
			</g>
			<g>
				<polygon fill="#424766" points="360.1,268.1 336.9,309.2 316.1,211.8 329.7,170.8 				"/>
			</g>
			<g>
				<polygon fill="#434A70" points="329.7,170.8 360.1,268.1 242.2,191.2 254.2,188.4 				"/>
			</g>
			<g>
				<polygon fill="#3B4263" points="360.1,268.1 336.9,309.2 237.9,233 242.2,191.2 				"/>
			</g>
			<g>
				<polygon fill="#353B59" points="360.1,268.1 336.9,309.2 311.6,306.9 330.2,265.7 				"/>
			</g>
			<g>
				<polygon fill="#4B5073" points="329.7,170.8 450,229.4 360.1,268.1 				"/>
			</g>
			<g>
				<polygon fill="#424766" points="450,229.4 417,271.5 336.9,309.2 360.1,268.1 				"/>
			</g>
			<g>
				<polygon fill="#30344F" points="223.8,326.8 220.9,363.8 133.2,261.4 122,219.2 				"/>
			</g>
			<g>
				<polygon fill="#282C43" points="200.5,318.1 201.6,355.9 124.7,262.9 112.2,220.6 				"/>
			</g>
			<g>
				<polygon fill="#353A59" points="242.2,191.2 237.9,233 220.9,363.8 223.8,326.8 				"/>
			</g>
			<g>
				<polygon fill="#353B59" points="360.1,268.1 336.9,309.2 220.9,363.8 223.8,326.8 				"/>
			</g>
			<g>
				<polygon fill="#2D324B" points="223.8,326.8 200.5,318.1 112.2,220.6 122,219.2 				"/>
			</g>
			<g>
				<polygon fill="#282C43" points="223.8,326.8 220.9,363.8 201.6,355.9 200.5,318.1 				"/>
			</g>
			<g>
				<polygon fill="#434A70" points="450,229.4 223.8,326.8 360.1,268.1 				"/>
			</g>
			<g>
				<polygon fill="#3B4263" points="450,229.4 417,271.5 220.9,363.8 223.8,326.8 				"/>
			</g>
			<g>
				<polygon fill="#3C4265" points="360.1,268.1 330.2,265.7 360.1,268.1 223.8,326.8 242.2,191.2 346.4,259.2 				"/>
			</g>
			<g>
				<polygon fill="#363B59" points="242.2,191.2 223.8,326.8 122,219.2 227,194.7 				"/>
			</g>
		</g>
	</g>
</g>
</svg>
